<svg height="200" viewBox="0 0 1024 1024" width="200" xmlns="http://www.w3.org/2000/svg"><path d="m874.666667 298.666667h-725.333334a21.333333 21.333333 0 0 1 -21.333333-21.333334v-42.666666a21.333333 21.333333 0 0 1 21.333333-21.333334h725.333334a21.333333 21.333333 0 0 1 21.333333 21.333334v42.666666a21.333333 21.333333 0 0 1 -21.333333 21.333334zm21.333333 234.666666v-42.666666a21.333333 21.333333 0 0 0 -21.333333-21.333334h-469.333334a21.333333 21.333333 0 0 0 -21.333333 21.333334v42.666666a21.333333 21.333333 0 0 0 21.333333 21.333334h469.333334a21.333333 21.333333 0 0 0 21.333333-21.333334zm0 256v-42.666666a21.333333 21.333333 0 0 0 -21.333333-21.333334h-213.333334a21.333333 21.333333 0 0 0 -21.333333 21.333334v42.666666a21.333333 21.333333 0 0 0 21.333333 21.333334h213.333334a21.333333 21.333333 0 0 0 21.333333-21.333334z"/></svg>