<svg height="12.5" viewBox="0 0 13.44 12.5" width="13.44" xmlns="http://www.w3.org/2000/svg"><path d="m1182.97 592.7h-4.42l-1.34-4.007a.491.491 0 0 0 -.92 0l-1.34 4.007h-4.45a.484.484 0 0 0 -.48.48.218.218 0 0 0 .01.081.464.464 0 0 0 .2.34l3.63 2.559-1.39 4.052a.487.487 0 0 0 .16.541.478.478 0 0 0 .28.117.641.641 0 0 0 .3-.108l3.54-2.527 3.54 2.527a.61.61 0 0 0 .3.108.412.412 0 0 0 .27-.117.475.475 0 0 0 .17-.541l-1.4-4.052 3.6-2.583.09-.075a.5.5 0 0 0 .16-.322.511.511 0 0 0 -.51-.48z" fill="#f35d5b" fill-rule="evenodd" transform="translate(-1170.03 -588.375)"/></svg>